<svg width="174" height="163" viewBox="0 0 174 163" fill="none" xmlns="http://www.w3.org/2000/svg">
<g filter="url(#filter0_d_2_6)">
<path d="M87 153L165.808 4.5H8.19169L87 153Z" fill="#081426"/>
<path d="M87 153L165.808 4.5H8.19169L87 153Z" stroke="#00D7FF" stroke-width="8" stroke-linejoin="bevel"/>
</g>
<mask id="path-2-outside-1_2_6" maskUnits="userSpaceOnUse" x="57" y="17" width="60" height="74" fill="black">
<rect fill="white" x="57" y="17" width="60" height="74"/>
<path d="M80.4803 90V30.288H58.5923V18.96H115.424V30.288H93.5363V90H80.4803Z"/>
</mask>
<path d="M80.4803 90V30.288H58.5923V18.96H115.424V30.288H93.5363V90H80.4803Z" fill="#00D7FF"/>
<path d="M80.4803 90H79.4803V91H80.4803V90ZM80.4803 30.288H81.4803V29.288H80.4803V30.288ZM58.5923 30.288H57.5923V31.288H58.5923V30.288ZM58.5923 18.96V17.96H57.5923V18.96H58.5923ZM115.424 18.96H116.424V17.96H115.424V18.96ZM115.424 30.288V31.288H116.424V30.288H115.424ZM93.5363 30.288V29.288H92.5363V30.288H93.5363ZM93.5363 90V91H94.5363V90H93.5363ZM80.4803 90H81.4803V30.288H80.4803H79.4803V90H80.4803ZM80.4803 30.288V29.288H58.5923V30.288V31.288H80.4803V30.288ZM58.5923 30.288H59.5923V18.96H58.5923H57.5923V30.288H58.5923ZM58.5923 18.96V19.96H115.424V18.96V17.96H58.5923V18.96ZM115.424 18.96H114.424V30.288H115.424H116.424V18.96H115.424ZM115.424 30.288V29.288H93.5363V30.288V31.288H115.424V30.288ZM93.5363 30.288H92.5363V90H93.5363H94.5363V30.288H93.5363ZM93.5363 90V89H80.4803V90V91H93.5363V90Z" fill="#040404" mask="url(#path-2-outside-1_2_6)"/>
<defs>
<filter id="filter0_d_2_6" x="0.658417" y="0.5" width="172.683" height="162.375" filterUnits="userSpaceOnUse" color-interpolation-filters="sRGB">
<feFlood flood-opacity="0" result="BackgroundImageFix"/>
<feColorMatrix in="SourceAlpha" type="matrix" values="0 0 0 0 0 0 0 0 0 0 0 0 0 0 0 0 0 0 127 0" result="hardAlpha"/>
<feOffset dy="4"/>
<feGaussianBlur stdDeviation="2"/>
<feComposite in2="hardAlpha" operator="out"/>
<feColorMatrix type="matrix" values="0 0 0 0 0 0 0 0 0 0 0 0 0 0 0 0 0 0 0.25 0"/>
<feBlend mode="normal" in2="BackgroundImageFix" result="effect1_dropShadow_2_6"/>
<feBlend mode="normal" in="SourceGraphic" in2="effect1_dropShadow_2_6" result="shape"/>
</filter>
</defs>
</svg>
