<svg width="174" height="163" viewBox="0 0 174 163" fill="none" xmlns="http://www.w3.org/2000/svg">
<g filter="url(#filter0_d_2_6)">
<path d="M87 153L165.808 4.5H8.19169L87 153Z" fill="#0A192F"/>
<path d="M87 153L165.808 4.5H8.19169L87 153Z" stroke="#64FFDA" stroke-width="8" stroke-linejoin="bevel"/>
</g>
<mask id="path-2-outside-1_2_6" maskUnits="userSpaceOnUse" x="62" y="25" width="50" height="62" fill="black">
<rect fill="white" x="62" y="25" width="50" height="62"/>
<path d="M81.5669 86V36.24H63.3269V26.8H110.687V36.24H92.4469V86H81.5669Z"/>
</mask>
<path d="M81.5669 86V36.24H63.3269V26.8H110.687V36.24H92.4469V86H81.5669Z" fill="#64FFDA"/>
<path d="M81.5669 86H80.5669V87H81.5669V86ZM81.5669 36.24H82.5669V35.24H81.5669V36.24ZM63.3269 36.24H62.3269V37.24H63.3269V36.24ZM63.3269 26.8V25.8H62.3269V26.8H63.3269ZM110.687 26.8H111.687V25.8H110.687V26.8ZM110.687 36.24V37.24H111.687V36.24H110.687ZM92.4469 36.24V35.24H91.4469V36.24H92.4469ZM92.4469 86V87H93.4469V86H92.4469ZM81.5669 86H82.5669V36.24H81.5669H80.5669V86H81.5669ZM81.5669 36.24V35.24H63.3269V36.24V37.24H81.5669V36.24ZM63.3269 36.24H64.3269V26.8H63.3269H62.3269V36.24H63.3269ZM63.3269 26.8V27.8H110.687V26.8V25.8H63.3269V26.8ZM110.687 26.8H109.687V36.24H110.687H111.687V26.8H110.687ZM110.687 36.24V35.24H92.4469V36.24V37.24H110.687V36.24ZM92.4469 36.24H91.4469V86H92.4469H93.4469V36.24H92.4469ZM92.4469 86V85H81.5669V86V87H92.4469V86Z" fill="#040404" mask="url(#path-2-outside-1_2_6)"/>
<defs>
<filter id="filter0_d_2_6" x="0.658417" y="0.5" width="172.683" height="162.375" filterUnits="userSpaceOnUse" color-interpolation-filters="sRGB">
<feFlood flood-opacity="0" result="BackgroundImageFix"/>
<feColorMatrix in="SourceAlpha" type="matrix" values="0 0 0 0 0 0 0 0 0 0 0 0 0 0 0 0 0 0 127 0" result="hardAlpha"/>
<feOffset dy="4"/>
<feGaussianBlur stdDeviation="2"/>
<feComposite in2="hardAlpha" operator="out"/>
<feColorMatrix type="matrix" values="0 0 0 0 0 0 0 0 0 0 0 0 0 0 0 0 0 0 0.25 0"/>
<feBlend mode="normal" in2="BackgroundImageFix" result="effect1_dropShadow_2_6"/>
<feBlend mode="normal" in="SourceGraphic" in2="effect1_dropShadow_2_6" result="shape"/>
</filter>
</defs>
</svg>
